<?xml version="1.0" standalone="no"?>
<!DOCTYPE svg PUBLIC "-//W3C//DTD SVG 20010904//EN"
 "http://www.w3.org/TR/2001/REC-SVG-20010904/DTD/svg10.dtd">
<svg version="1.0" xmlns="http://www.w3.org/2000/svg"
 width="900.000000pt" height="900.000000pt" viewBox="0 0 900.000000 900.000000"
 preserveAspectRatio="xMidYMid meet">
<metadata>
Created by potrace 1.10, written by Peter Selinger 2001-2011
</metadata>
<g transform="translate(0.000000,900.000000) scale(0.100000,-0.100000)"
fill="#000000" stroke="none">
<path d="M4487 7103 c-9 -15 6 -62 51 -155 77 -162 102 -218 102 -233 0 -8 7
-30 17 -49 15 -32 15 -37 0 -60 -22 -34 -21 -48 7 -104 l24 -48 -35 -64 c-37
-67 -67 -143 -133 -340 -21 -63 -48 -140 -60 -170 -12 -30 -25 -67 -30 -81 -4
-14 -12 -34 -18 -45 -5 -10 -18 -36 -28 -57 -11 -22 -45 -67 -76 -102 -51 -56
-58 -68 -58 -105 0 -49 -10 -70 -60 -128 -21 -23 -41 -57 -44 -75 -4 -22 -20
-45 -49 -69 -29 -24 -56 -61 -80 -110 -20 -40 -52 -91 -72 -112 -40 -43 -42
-51 -18 -60 26 -10 3 -24 -47 -28 -88 -6 -56 -69 60 -119 41 -18 84 -43 96
-56 18 -22 23 -22 50 -11 56 25 139 85 184 134 75 81 164 198 190 249 6 11 19
34 30 50 11 17 23 37 27 45 4 8 36 64 72 124 36 59 71 117 77 127 12 20 88
103 121 132 26 22 42 15 76 -31 27 -36 76 -95 163 -196 34 -39 74 -86 90 -105
16 -19 43 -50 60 -70 46 -55 124 -159 124 -166 0 -4 14 -25 32 -47 l31 -40
-34 -66 c-89 -172 -220 -378 -346 -542 -197 -258 -225 -293 -408 -509 -11 -13
-27 -31 -36 -40 -9 -9 -24 -29 -35 -46 -39 -63 -262 -353 -304 -395 -3 -3 -22
-25 -43 -48 -68 -77 -190 -183 -274 -238 -45 -30 -86 -54 -91 -54 -5 0 -15 -7
-22 -15 -19 -23 -44 -18 -68 15 -12 16 -22 33 -22 38 0 5 -42 52 -92 104 -127
129 -197 174 -295 188 -95 15 -105 4 -79 -86 15 -54 34 -128 47 -189 5 -22 18
-71 30 -110 11 -38 24 -86 29 -105 50 -203 205 -440 337 -512 48 -27 166 -24
218 6 l40 23 -1 84 c0 57 -10 119 -28 192 -30 116 -27 137 19 137 23 0 81 35
125 75 14 12 39 30 56 39 31 15 33 14 58 -9 15 -14 31 -25 36 -25 13 0 113 59
125 74 6 6 39 34 74 60 64 49 64 50 176 56 10 0 44 29 115 94 47 44 160 170
206 230 21 28 45 57 53 66 9 9 42 49 75 88 32 40 64 72 71 72 6 0 21 -19 34
-42 12 -24 31 -59 43 -78 12 -19 44 -78 71 -130 122 -229 275 -410 387 -455 8
-4 30 -13 48 -21 68 -29 266 -8 315 35 20 17 18 55 -9 176 -23 106 -43 149
-111 237 -40 53 -187 185 -223 201 -8 4 -28 16 -45 27 -16 10 -79 44 -140 75
-179 92 -265 146 -265 168 0 6 9 21 21 33 11 12 26 39 34 61 10 30 24 45 70
73 82 49 145 134 271 368 20 37 47 81 60 99 13 17 24 36 24 41 0 5 9 17 21 28
20 18 21 17 84 -51 35 -39 64 -73 65 -77 0 -5 15 -25 33 -45 29 -33 124 -165
152 -211 6 -9 21 -34 35 -57 13 -22 29 -48 35 -57 16 -28 122 -197 168 -268
155 -243 417 -544 582 -671 184 -141 377 -226 600 -265 74 -12 106 -13 180 -4
50 7 105 18 123 26 18 8 39 14 46 14 40 0 192 128 217 182 5 13 19 39 29 58
10 19 26 59 35 88 l16 53 -32 62 c-48 96 -136 227 -187 281 -43 44 -121 108
-177 146 -13 8 -75 50 -138 93 -64 42 -126 82 -139 87 -13 6 -32 16 -43 22
-38 25 -100 63 -121 74 -24 13 -156 93 -188 114 -13 8 -45 28 -72 44 -46 28
-177 116 -289 194 -71 50 -281 208 -340 256 -54 45 -326 314 -363 359 -25 31
-25 33 14 125 40 93 47 108 55 124 5 9 27 70 48 135 22 65 57 163 76 218 20
55 40 112 44 126 5 14 13 34 19 45 6 10 26 53 46 95 20 41 47 92 61 113 14 20
25 39 25 42 0 15 128 169 171 206 28 24 65 55 82 70 36 31 144 86 191 99 95
25 115 29 157 34 76 9 89 29 89 139 0 78 -3 97 -20 119 -27 34 -238 138 -412
203 -136 51 -177 64 -248 81 -75 18 -153 29 -260 39 l-75 6 -42 -50 c-45 -53
-78 -74 -153 -98 -71 -23 -250 -54 -312 -54 -31 0 -89 -7 -129 -15 -84 -18
-107 -13 -115 23 -13 61 -42 110 -100 167 -68 68 -109 90 -248 135 -127 40
-454 77 -469 53z m1372 -702 c20 -13 5 -182 -31 -331 -6 -25 -14 -63 -18 -85
-4 -22 -12 -51 -17 -65 -15 -37 -34 -91 -43 -125 -5 -16 -18 -55 -30 -85 -39
-100 -51 -135 -57 -155 -21 -79 -99 -265 -110 -265 -5 0 -27 17 -50 38 -64 58
-134 117 -174 149 -144 111 -245 185 -314 231 -119 79 -117 78 -110 137 8 53
12 62 91 197 47 79 94 201 94 242 0 24 33 36 100 36 65 0 228 23 325 45 33 8
110 19 170 25 101 10 142 15 155 18 3 1 11 -2 19 -7z"/>
<path d="M2345 7064 c-11 -2 -47 -9 -80 -16 -68 -12 -171 -62 -186 -90 -10
-19 -5 -38 12 -38 21 0 121 -85 149 -127 47 -69 57 -93 70 -170 14 -77 6 -158
-25 -268 -8 -27 -21 -79 -30 -115 -9 -36 -27 -99 -41 -140 -38 -116 -54 -171
-64 -221 -12 -64 -28 -86 -67 -94 -42 -8 -47 -18 -28 -56 26 -49 13 -85 -59
-166 -35 -39 -71 -82 -80 -94 -16 -23 -17 -23 -49 -7 -71 35 -139 48 -253 48
-82 0 -126 -5 -156 -17 -48 -18 -78 -40 -78 -57 0 -6 52 -42 116 -80 138 -82
217 -152 263 -234 35 -62 39 -65 154 -117 56 -25 191 -77 249 -95 32 -10 143
-65 173 -86 37 -26 115 -106 115 -119 0 -6 -11 -32 -24 -56 -14 -24 -31 -55
-39 -69 -7 -14 -45 -86 -84 -160 -39 -74 -80 -151 -91 -170 -11 -19 -30 -52
-41 -72 -96 -175 -265 -344 -416 -416 -128 -61 -141 -63 -215 -26 -89 44 -156
57 -225 41 -32 -7 -60 -18 -63 -25 -2 -6 16 -33 40 -59 44 -49 52 -61 132
-217 67 -129 114 -195 175 -244 53 -43 56 -44 109 -38 65 8 115 32 207 100 39
29 95 64 125 78 129 60 553 158 684 158 62 0 290 43 406 77 30 8 88 29 128 45
l72 29 48 -39 c76 -63 130 -82 236 -82 l91 0 24 35 c59 87 75 210 46 355 -22
113 -58 200 -126 305 -38 58 -155 182 -214 224 -64 48 -177 101 -213 101 -32
0 -105 27 -144 54 -39 26 -35 55 17 118 40 49 45 60 45 106 0 43 4 54 28 72
77 60 181 176 250 280 43 63 79 119 82 125 3 6 40 62 82 126 91 137 148 202
240 276 37 29 68 62 68 71 0 9 7 25 14 35 13 17 12 30 -9 122 -27 119 -226
256 -490 338 -87 27 -102 28 -119 11 -9 -9 -31 -20 -49 -25 l-32 -9 -1 -132
c0 -124 -2 -139 -33 -228 -18 -52 -39 -107 -47 -122 -26 -52 -48 -93 -71 -133
-12 -22 -26 -47 -30 -55 -3 -8 -18 -33 -32 -55 -14 -22 -30 -48 -36 -57 -5 -9
-35 -59 -66 -110 -65 -106 -99 -178 -125 -261 -29 -91 -34 -91 -189 -10 -70
37 -154 101 -207 157 -58 60 -67 81 -48 114 5 9 75 150 154 312 80 162 166
331 190 375 25 44 49 87 53 95 4 8 20 34 35 56 15 23 28 44 28 48 0 4 89 139
173 260 24 34 27 48 27 120 0 96 -16 150 -70 234 -34 53 -196 125 -350 156
-87 17 -186 27 -215 20z m705 -2465 c0 -4 13 -28 30 -52 84 -125 122 -242 118
-364 l-3 -88 -45 -3 c-37 -3 -53 -11 -92 -48 -59 -55 -82 -64 -166 -64 -37 -1
-85 -7 -107 -15 -22 -8 -49 -15 -59 -15 -11 0 -42 -6 -70 -14 -187 -53 -238
-60 -243 -36 -2 9 18 43 44 76 99 126 108 137 115 156 4 11 12 16 18 13 15 -9
12 -42 -5 -49 -17 -6 -20 -42 -5 -51 6 -3 13 1 17 10 3 9 19 31 35 48 34 37
159 200 204 267 142 210 140 208 155 237 10 18 15 20 35 11 13 -6 24 -15 24
-19z"/>
<path d="M2306 3133 c-10 -10 -7 -53 6 -76 6 -12 15 -38 19 -57 7 -33 22 -81
40 -125 14 -33 40 -108 49 -140 4 -16 13 -43 19 -60 19 -55 41 -194 41 -263 0
-67 1 -69 53 -133 29 -35 79 -104 112 -154 96 -145 160 -220 229 -264 95 -62
129 -55 183 39 33 57 47 124 39 188 -4 31 -11 91 -16 132 -4 41 -13 88 -19
103 -6 16 -11 41 -11 57 0 47 -57 190 -105 266 -33 52 -181 206 -245 256 -121
93 -206 150 -285 188 -49 23 -93 44 -96 46 -3 2 -9 1 -13 -3z"/>
<path d="M1127 2764 c-13 -14 -7 -31 31 -82 21 -28 58 -91 81 -139 24 -48 49
-101 57 -116 8 -16 14 -33 14 -39 0 -5 6 -24 14 -41 8 -18 16 -41 19 -52 3
-11 15 -45 27 -75 11 -30 30 -82 41 -115 11 -33 24 -69 29 -80 5 -11 19 -45
31 -75 56 -144 163 -359 215 -436 45 -65 116 -137 180 -180 121 -83 178 -103
191 -67 4 10 17 32 29 48 12 17 30 50 39 75 8 25 23 65 33 90 21 56 24 252 4
320 -30 101 -44 147 -57 175 -29 69 -72 151 -102 197 -18 27 -33 53 -33 58 0
5 -3 10 -7 12 -5 2 -21 20 -37 41 -162 217 -496 445 -691 471 -27 4 -61 9 -75
12 -14 2 -29 2 -33 -2z"/>
<path d="M4938 2617 c-71 -16 -79 -24 -51 -47 63 -50 82 -70 126 -127 80 -104
120 -179 310 -573 133 -275 268 -416 466 -485 73 -25 95 -20 133 28 70 87 88
142 88 265 0 150 -66 384 -140 497 -11 17 -24 40 -30 52 -16 37 -130 144 -210
198 -221 148 -519 231 -692 192z"/>
</g>
</svg>
